<?xml version="1.0" standalone="no"?>
<!DOCTYPE svg PUBLIC "-//W3C//DTD SVG 20010904//EN"
 "http://www.w3.org/TR/2001/REC-SVG-20010904/DTD/svg10.dtd">
<svg version="1.0" xmlns="http://www.w3.org/2000/svg"
 width="600.000000pt" height="600.000000pt" viewBox="0 0 600.000000 600.000000"
 preserveAspectRatio="xMidYMid meet">
<g transform="translate(0.000000,600.000000) scale(0.050000,-0.050000)"
fill="#000000" stroke="none">
<path d="M7261 8391 c-42 -50 -17 -100 52 -107 50 -5 66 3 77 36 25 80 -75
136 -129 71z m94 -46 c5 -15 -9 -25 -33 -25 -25 0 -42 13 -42 31 0 37 62 32
75 -6z"/>
<path d="M7531 8349 c-13 -70 5 -126 23 -74 5 14 27 25 48 25 83 0 72 82 -15
108 -36 11 -44 3 -56 -59z"/>
<path d="M7080 8349 c0 -51 64 -124 100 -115 56 15 71 46 22 46 -22 0 -50 18
-62 40 -19 36 -60 56 -60 29z"/>
<path d="M7701 8311 c-48 -57 18 -146 88 -119 73 28 49 148 -29 148 -19 0 -46
-13 -59 -29z m90 -33 c21 -33 -26 -71 -53 -44 -23 23 -9 66 22 66 10 0 24 -10
31 -22z"/>
<path d="M6955 8278 c-73 -42 -18 -154 62 -129 51 16 68 64 42 112 -23 43 -52
48 -104 17z m76 -40 c21 -33 -26 -71 -53 -44 -23 23 -9 66 22 66 10 0 24 -10
31 -22z"/>
<path d="M7863 8194 c-49 -53 -56 -83 -15 -68 17 7 32 -5 38 -29 13 -48 94 6
94 63 0 79 -58 96 -117 34z"/>
<path d="M6824 8156 c-51 -51 -8 -121 47 -75 18 15 29 16 29 3 0 -11 -11 -25
-25 -30 -14 -5 -18 -16 -10 -24 21 -24 75 29 75 75 0 32 -9 37 -49 27 -39 -10
-47 -6 -38 18 14 36 3 38 -29 6z"/>
<path d="M8021 8086 c-1 -25 -17 -49 -41 -56 -22 -7 -40 -21 -40 -31 0 -26 55
-24 71 2 7 11 30 15 51 8 49 -15 49 14 -1 74 l-40 47 0 -44z"/>
<path d="M7431 8010 c-8 -33 -23 -93 -34 -134 -35 -141 -192 -256 -349 -256
-91 0 -63 -33 48 -56 226 -47 287 -123 206 -256 -71 -116 -197 -158 -472 -157
-263 0 -202 -17 -731 205 -580 242 -1004 188 -1358 -172 -568 -579 -455 -1471
247 -1949 244 -166 452 -245 992 -376 768 -185 1204 -769 797 -1065 -201 -147
-376 -37 -633 399 -287 487 -457 645 -759 708 -566 118 -909 -275 -958 -1096
l-13 -225 90 0 91 0 13 84 c63 392 499 449 999 129 299 -191 491 -252 793
-252 757 0 1220 529 1220 1394 0 765 -476 1215 -1627 1539 -740 208 -1070 511
-818 751 222 212 472 114 852 -335 395 -468 499 -540 773 -540 400 0 643 312
720 923 27 209 140 307 355 307 79 0 33 34 -65 47 -200 27 -277 100 -331 313
-31 121 -35 126 -48 70z m-601 -1118 c132 0 228 11 283 31 83 31 84 31 92 -16
5 -26 4 -47 -3 -47 -7 0 -35 -36 -62 -81 -200 -323 -564 -260 -863 149 -82
113 -78 114 148 35 182 -63 228 -71 405 -71z m-1909 23 c124 -310 388 -498
906 -646 983 -282 1378 -530 1524 -959 47 -137 33 -735 -19 -880 -127 -348
-171 -378 -242 -167 -43 128 -180 360 -207 351 -7 -2 -13 2 -13 9 0 139 -508
388 -1040 509 -815 185 -1193 553 -1206 1173 -8 350 110 675 245 675 15 0 38
-29 52 -65z m581 -2310 c168 -83 650 -719 590 -779 -20 -21 -197 57 -407 179
-342 198 -596 258 -845 197 -38 -9 -83 -20 -100 -25 -42 -10 -31 109 20 211
21 43 33 88 26 98 -7 11 -3 15 8 8 11 -7 42 11 68 39 125 136 439 171 640 72z"/>
<path d="M8055 7937 c-59 -22 -74 -57 -25 -57 17 0 30 -9 30 -20 0 -11 9 -20
20 -20 11 0 20 15 20 34 0 29 4 29 29 -5 33 -43 44 -6 19 59 -14 36 -17 36
-93 9z"/>
<path d="M8071 7769 c-37 -38 -37 -40 -10 -90 33 -63 139 -38 139 34 0 28 -54
87 -80 87 -9 0 -31 -14 -49 -31z m80 -31 c21 -33 -26 -71 -53 -44 -23 23 -9
66 22 66 10 0 24 -10 31 -22z"/>
<path d="M8053 7587 c-20 -21 -15 -87 7 -87 11 0 20 13 20 30 0 22 15 26 60
17 70 -14 83 22 15 40 -59 16 -85 16 -102 0z"/>
<path d="M8020 7444 c0 -11 28 -30 63 -42 79 -28 77 -28 77 8 0 17 -11 30 -25
30 -14 0 -45 6 -70 13 -25 6 -45 3 -45 -9z"/>
<path d="M7968 7331 c-21 -53 2 -101 51 -108 63 -9 108 47 80 100 -24 44 -115
50 -131 8z"/>
</g>
</svg>
